<svg xmlns="http://www.w3.org/2000/svg" width="20" height="19.51"><path d="M20 10a10 10 0 01-6.84 9.49.52.52 0 01-.45-.07.51.51 0 01-.21-.41v-2.67a4 4 0 00-.5-2.06.25.25 0 010-.27.27.27 0 01.2-.14c2.44-.25 3.8-1.22 3.8-3.86a4.71 4.71 0 00-1.19-3.36 4.3 4.3 0 00.19-1.2 4.33 4.33 0 00-.15-1.08.49.49 0 00-.53-.36 4.45 4.45 0 00-2.44 1.18 9.91 9.91 0 00-3.76 0A4.45 4.45 0 005.68 4a.49.49 0 00-.53.36A4.33 4.33 0 005 5.45a4.3 4.3 0 00.19 1.2A4.71 4.71 0 004 10c0 2.78 1.51 3.7 4.28 3.94a3.71 3.71 0 00-.69 1.53v.12a.68.68 0 000 .14.59.59 0 01-.64.5 1 1 0 01-.43-.11 5.34 5.34 0 01-1.42-1.26 10.09 10.09 0 00-.8-.81 2.74 2.74 0 00-.59-.4.49.49 0 00-.48 0 .5.5 0 00-.23.43v.06a.5.5 0 00.23.42 4.54 4.54 0 01.92 1.05 6.61 6.61 0 001.59 1.72 2.48 2.48 0 001.4.42h.36V19a.51.51 0 01-.21.4.52.52 0 01-.45.08A10 10 0 1120 10z"/></svg>