<svg xmlns="http://www.w3.org/2000/svg" width="196.692" height="22.842" viewBox="0 0 196.692 22.842"><g transform="translate(-739.152 -500)"><g transform="translate(0 -2)"><path d="M13.959,6.979a6.979,6.979,0,1,0-2.044,4.935A6.979,6.979,0,0,0,13.959,6.979Z" transform="translate(739.152 502)" fill="#4c51bf"/><path d="M5.076,2.538A2.538,2.538,0,1,1,2.538,0,2.538,2.538,0,0,1,5.076,2.538Z" transform="translate(748.035 519.766)" fill="#a3bffa"/><path d="M4.441,0A4.441,4.441,0,1,0,8.883,4.441,4.441,4.441,0,0,0,4.441,0Z" transform="translate(753.111 512.152)" fill="#667eea"/></g><path d="M7.826.338A6.607,6.607,0,0,1,2.938-1.625,6.642,6.642,0,0,1,.988-6.5a6.642,6.642,0,0,1,1.95-4.875,6.607,6.607,0,0,1,4.888-1.963,6.576,6.576,0,0,1,3.458.923,5.8,5.8,0,0,1,2.288,2.483l-1.9,1.092A3.854,3.854,0,0,0,10.153-10.5a4.392,4.392,0,0,0-2.327-.624A4.407,4.407,0,0,0,4.563-9.8,4.505,4.505,0,0,0,3.25-6.5,4.473,4.473,0,0,0,4.563-3.224,4.407,4.407,0,0,0,7.826-1.9a4.533,4.533,0,0,0,2.34-.611A4.092,4.092,0,0,0,11.752-4.16l1.924,1.118A6.321,6.321,0,0,1,11.284-.585,6.664,6.664,0,0,1,7.826.338ZM17.758-9.49a1.369,1.369,0,0,0,.754,1.209,6.759,6.759,0,0,0,1.82.728q1.066.273,2.132.624a4.132,4.132,0,0,1,1.82,1.2,3.138,3.138,0,0,1,.754,2.171A3.416,3.416,0,0,1,23.673-.728a5.513,5.513,0,0,1-3.5,1.066,6.082,6.082,0,0,1-3.25-.832A4.651,4.651,0,0,1,15-2.7l1.95-1.118a2.743,2.743,0,0,0,1.17,1.482,3.745,3.745,0,0,0,2.054.546,3.592,3.592,0,0,0,1.846-.429,1.444,1.444,0,0,0,.728-1.339A1.369,1.369,0,0,0,22-4.771a6.759,6.759,0,0,0-1.82-.728q-1.066-.273-2.132-.637a4.287,4.287,0,0,1-1.82-1.2,3.053,3.053,0,0,1-.754-2.132,3.46,3.46,0,0,1,1.313-2.782,4.97,4.97,0,0,1,3.289-1.092,5.527,5.527,0,0,1,2.821.715,4.579,4.579,0,0,1,1.859,1.989l-1.9,1.066a2.722,2.722,0,0,0-2.782-1.664,2.865,2.865,0,0,0-1.638.455A1.462,1.462,0,0,0,17.758-9.49Zm11.1,0a1.369,1.369,0,0,0,.754,1.209,6.759,6.759,0,0,0,1.82.728q1.066.273,2.132.624a4.132,4.132,0,0,1,1.82,1.2,3.138,3.138,0,0,1,.754,2.171A3.416,3.416,0,0,1,34.775-.728a5.513,5.513,0,0,1-3.5,1.066,6.082,6.082,0,0,1-3.25-.832A4.651,4.651,0,0,1,26.1-2.7l1.95-1.118a2.743,2.743,0,0,0,1.17,1.482,3.745,3.745,0,0,0,2.054.546,3.592,3.592,0,0,0,1.846-.429,1.444,1.444,0,0,0,.728-1.339A1.369,1.369,0,0,0,33.1-4.771a6.759,6.759,0,0,0-1.82-.728q-1.066-.273-2.132-.637a4.286,4.286,0,0,1-1.82-1.2,3.053,3.053,0,0,1-.754-2.132,3.46,3.46,0,0,1,1.313-2.782,4.97,4.97,0,0,1,3.289-1.092,5.527,5.527,0,0,1,2.821.715,4.579,4.579,0,0,1,1.859,1.989l-1.9,1.066a2.722,2.722,0,0,0-2.782-1.664,2.865,2.865,0,0,0-1.638.455A1.462,1.462,0,0,0,28.86-9.49ZM49.218-13H51.48V0H49.218V-2.236A5.516,5.516,0,0,1,44.3.338,6.237,6.237,0,0,1,39.65-1.651,6.713,6.713,0,0,1,37.726-6.5a6.713,6.713,0,0,1,1.924-4.849A6.237,6.237,0,0,1,44.3-13.338a5.516,5.516,0,0,1,4.914,2.574ZM44.59-1.846a4.459,4.459,0,0,0,3.3-1.339A4.525,4.525,0,0,0,49.218-6.5a4.525,4.525,0,0,0-1.326-3.315,4.459,4.459,0,0,0-3.3-1.339,4.428,4.428,0,0,0-3.276,1.339A4.525,4.525,0,0,0,39.988-6.5a4.525,4.525,0,0,0,1.326,3.315A4.428,4.428,0,0,0,44.59-1.846Zm16.8-11.492A4.833,4.833,0,0,1,65.052-11.9,5.431,5.431,0,0,1,66.43-7.982V0H64.168V-7.852a3.352,3.352,0,0,0-.858-2.457,3.17,3.17,0,0,0-2.366-.871,3.667,3.667,0,0,0-2.73,1.053,4.443,4.443,0,0,0-1.04,3.237V0H54.912V-13h2.262v1.872A4.622,4.622,0,0,1,61.386-13.338Zm9.334-2.028a1.483,1.483,0,0,1-1.092-.442,1.453,1.453,0,0,1-.442-1.066,1.5,1.5,0,0,1,.442-1.079,1.462,1.462,0,0,1,1.092-.455,1.432,1.432,0,0,1,1.066.455,1.5,1.5,0,0,1,.442,1.079,1.453,1.453,0,0,1-.442,1.066A1.453,1.453,0,0,1,70.72-15.366ZM69.576,0V-13h2.262V0Zm19.76-13.338a4.664,4.664,0,0,1,3.536,1.417,5.325,5.325,0,0,1,1.352,3.835V0H91.962V-8.008a3.29,3.29,0,0,0-.78-2.34,2.716,2.716,0,0,0-2.08-.832,2.966,2.966,0,0,0-2.327.975A4.362,4.362,0,0,0,85.9-7.228V0H83.642V-8.008a3.4,3.4,0,0,0-.741-2.34,2.562,2.562,0,0,0-2.015-.832,3.161,3.161,0,0,0-2.379.988,4.129,4.129,0,0,0-.949,2.964V0H75.3V-13h2.262v1.742a4.311,4.311,0,0,1,3.874-2.08,4.035,4.035,0,0,1,3.822,2.21A4.468,4.468,0,0,1,89.336-13.338Zm18.8.338H110.4V0h-2.262V-2.236A5.516,5.516,0,0,1,103.22.338a6.237,6.237,0,0,1-4.654-1.989A6.713,6.713,0,0,1,96.642-6.5a6.713,6.713,0,0,1,1.924-4.849,6.237,6.237,0,0,1,4.654-1.989,5.516,5.516,0,0,1,4.914,2.574ZM103.506-1.846a4.459,4.459,0,0,0,3.3-1.339A4.525,4.525,0,0,0,108.134-6.5a4.525,4.525,0,0,0-1.326-3.315,4.459,4.459,0,0,0-3.3-1.339,4.428,4.428,0,0,0-3.276,1.339A4.525,4.525,0,0,0,98.9-6.5a4.525,4.525,0,0,0,1.326,3.315A4.428,4.428,0,0,0,103.506-1.846Zm17.394-8.97h-3.458V-3.77a1.978,1.978,0,0,0,.377,1.365,1.551,1.551,0,0,0,1.157.416q.78.013,1.924-.039V0a6.69,6.69,0,0,1-4.342-.481q-1.378-.871-1.378-3.289v-7.046h-2.574V-13h2.574v-2.964l2.262-.676V-13H120.9Zm3.822-4.55a1.483,1.483,0,0,1-1.092-.442,1.453,1.453,0,0,1-.442-1.066,1.5,1.5,0,0,1,.442-1.079,1.462,1.462,0,0,1,1.092-.455,1.432,1.432,0,0,1,1.066.455,1.5,1.5,0,0,1,.442,1.079,1.453,1.453,0,0,1-.442,1.066A1.453,1.453,0,0,1,124.722-15.366ZM123.578,0V-13h2.262V0ZM140.27-1.638A6.664,6.664,0,0,1,135.408.338a6.62,6.62,0,0,1-4.849-1.976A6.586,6.586,0,0,1,128.57-6.5a6.586,6.586,0,0,1,1.989-4.862,6.62,6.62,0,0,1,4.849-1.976,6.664,6.664,0,0,1,4.862,1.976,6.564,6.564,0,0,1,2,4.862A6.564,6.564,0,0,1,140.27-1.638Zm-4.862-.234A4.45,4.45,0,0,0,138.684-3.2a4.482,4.482,0,0,0,1.326-3.3,4.482,4.482,0,0,0-1.326-3.3,4.45,4.45,0,0,0-3.276-1.326,4.419,4.419,0,0,0-3.25,1.326,4.482,4.482,0,0,0-1.326,3.3,4.482,4.482,0,0,0,1.326,3.3A4.419,4.419,0,0,0,135.408-1.872Zm16.016-11.466A4.833,4.833,0,0,1,155.09-11.9a5.431,5.431,0,0,1,1.378,3.913V0h-2.262V-7.852a3.352,3.352,0,0,0-.858-2.457,3.17,3.17,0,0,0-2.366-.871,3.667,3.667,0,0,0-2.73,1.053,4.443,4.443,0,0,0-1.04,3.237V0H144.95V-13h2.262v1.872A4.622,4.622,0,0,1,151.424-13.338Zm10.14,3.848a1.369,1.369,0,0,0,.754,1.209,6.759,6.759,0,0,0,1.82.728q1.066.273,2.132.624a4.132,4.132,0,0,1,1.82,1.2,3.138,3.138,0,0,1,.754,2.171,3.416,3.416,0,0,1-1.365,2.834,5.513,5.513,0,0,1-3.5,1.066,6.082,6.082,0,0,1-3.25-.832,4.651,4.651,0,0,1-1.924-2.21l1.95-1.118a2.743,2.743,0,0,0,1.17,1.482,3.745,3.745,0,0,0,2.054.546,3.592,3.592,0,0,0,1.846-.429,1.444,1.444,0,0,0,.728-1.339,1.369,1.369,0,0,0-.754-1.209,6.759,6.759,0,0,0-1.82-.728q-1.066-.273-2.132-.637a4.287,4.287,0,0,1-1.82-1.2,3.053,3.053,0,0,1-.754-2.132,3.46,3.46,0,0,1,1.313-2.782,4.97,4.97,0,0,1,3.289-1.092,5.527,5.527,0,0,1,2.821.715,4.579,4.579,0,0,1,1.859,1.989l-1.9,1.066a2.722,2.722,0,0,0-2.782-1.664,2.865,2.865,0,0,0-1.638.455A1.462,1.462,0,0,0,161.564-9.49Z" transform="translate(767 520)"/></g></svg>