<svg xmlns="http://www.w3.org/2000/svg" width="143.522" height="22.842" viewBox="0 0 143.522 22.842"><g transform="translate(-739.152 -500)"><g transform="translate(0 -2)"><path d="M13.959,6.979a6.979,6.979,0,1,0-2.044,4.935A6.979,6.979,0,0,0,13.959,6.979Z" transform="translate(739.152 502)" fill="#4c51bf"/><path d="M5.076,2.538A2.538,2.538,0,1,1,2.538,0,2.538,2.538,0,0,1,5.076,2.538Z" transform="translate(748.035 519.766)" fill="#a3bffa"/><path d="M4.441,0A4.441,4.441,0,1,0,8.883,4.441,4.441,4.441,0,0,0,4.441,0Z" transform="translate(753.111 512.152)" fill="#667eea"/></g><path d="M7.826.338A6.607,6.607,0,0,1,2.938-1.625,6.642,6.642,0,0,1,.988-6.5a6.642,6.642,0,0,1,1.95-4.875,6.607,6.607,0,0,1,4.888-1.963,6.576,6.576,0,0,1,3.458.923,5.8,5.8,0,0,1,2.288,2.483l-1.9,1.092A3.854,3.854,0,0,0,10.153-10.5a4.392,4.392,0,0,0-2.327-.624A4.407,4.407,0,0,0,4.563-9.8,4.505,4.505,0,0,0,3.25-6.5,4.473,4.473,0,0,0,4.563-3.224,4.407,4.407,0,0,0,7.826-1.9a4.533,4.533,0,0,0,2.34-.611A4.092,4.092,0,0,0,11.752-4.16l1.924,1.118A6.321,6.321,0,0,1,11.284-.585,6.664,6.664,0,0,1,7.826.338ZM17.758-9.49a1.369,1.369,0,0,0,.754,1.209,6.759,6.759,0,0,0,1.82.728q1.066.273,2.132.624a4.132,4.132,0,0,1,1.82,1.2,3.138,3.138,0,0,1,.754,2.171A3.416,3.416,0,0,1,23.673-.728a5.513,5.513,0,0,1-3.5,1.066,6.082,6.082,0,0,1-3.25-.832A4.651,4.651,0,0,1,15-2.7l1.95-1.118a2.743,2.743,0,0,0,1.17,1.482,3.745,3.745,0,0,0,2.054.546,3.592,3.592,0,0,0,1.846-.429,1.444,1.444,0,0,0,.728-1.339A1.369,1.369,0,0,0,22-4.771a6.759,6.759,0,0,0-1.82-.728q-1.066-.273-2.132-.637a4.287,4.287,0,0,1-1.82-1.2,3.053,3.053,0,0,1-.754-2.132,3.46,3.46,0,0,1,1.313-2.782,4.97,4.97,0,0,1,3.289-1.092,5.527,5.527,0,0,1,2.821.715,4.579,4.579,0,0,1,1.859,1.989l-1.9,1.066a2.722,2.722,0,0,0-2.782-1.664,2.865,2.865,0,0,0-1.638.455A1.462,1.462,0,0,0,17.758-9.49Zm11.1,0a1.369,1.369,0,0,0,.754,1.209,6.759,6.759,0,0,0,1.82.728q1.066.273,2.132.624a4.132,4.132,0,0,1,1.82,1.2,3.138,3.138,0,0,1,.754,2.171A3.416,3.416,0,0,1,34.775-.728a5.513,5.513,0,0,1-3.5,1.066,6.082,6.082,0,0,1-3.25-.832A4.651,4.651,0,0,1,26.1-2.7l1.95-1.118a2.743,2.743,0,0,0,1.17,1.482,3.745,3.745,0,0,0,2.054.546,3.592,3.592,0,0,0,1.846-.429,1.444,1.444,0,0,0,.728-1.339A1.369,1.369,0,0,0,33.1-4.771a6.759,6.759,0,0,0-1.82-.728q-1.066-.273-2.132-.637a4.286,4.286,0,0,1-1.82-1.2,3.053,3.053,0,0,1-.754-2.132,3.46,3.46,0,0,1,1.313-2.782,4.97,4.97,0,0,1,3.289-1.092,5.527,5.527,0,0,1,2.821.715,4.579,4.579,0,0,1,1.859,1.989l-1.9,1.066a2.722,2.722,0,0,0-2.782-1.664,2.865,2.865,0,0,0-1.638.455A1.462,1.462,0,0,0,28.86-9.49ZM40.04-5.46a4.286,4.286,0,0,0,1.6,2.7,4.972,4.972,0,0,0,3.107.962,4.069,4.069,0,0,0,3.744-1.9L50.414-2.6A6.352,6.352,0,0,1,44.694.338,6.806,6.806,0,0,1,39.663-1.6a6.642,6.642,0,0,1-1.937-4.9,6.726,6.726,0,0,1,1.9-4.888,6.554,6.554,0,0,1,4.914-1.95A5.981,5.981,0,0,1,49.2-11.323a7.011,7.011,0,0,1,1.807,4.849,6.832,6.832,0,0,1-.078,1.014Zm4.5-5.746a4.466,4.466,0,0,0-3.016,1.027A4.446,4.446,0,0,0,40.04-7.436h8.684a4.333,4.333,0,0,0-1.456-2.808A4.169,4.169,0,0,0,44.538-11.206Zm22.438-5.408Q63.57-16.9,63.57-13.65V-13h3.406v2.184H63.57V0H61.308V-10.816H56.472V0H54.21V-10.816H52.13V-13h2.08v-.39a5.14,5.14,0,0,1,1.469-3.978,5.459,5.459,0,0,1,4.225-1.17v2.184q-3.432-.286-3.432,2.964V-13h4.836v-.65a5.165,5.165,0,0,1,1.456-3.978,5.417,5.417,0,0,1,4.212-1.17Zm2.6,11.154a4.286,4.286,0,0,0,1.6,2.7,4.972,4.972,0,0,0,3.107.962,4.069,4.069,0,0,0,3.744-1.9L79.95-2.6A6.352,6.352,0,0,1,74.23.338,6.806,6.806,0,0,1,69.2-1.6a6.642,6.642,0,0,1-1.937-4.9,6.726,6.726,0,0,1,1.9-4.888,6.554,6.554,0,0,1,4.914-1.95,5.981,5.981,0,0,1,4.667,2.015,7.011,7.011,0,0,1,1.807,4.849A6.832,6.832,0,0,1,80.47-5.46Zm4.5-5.746a4.466,4.466,0,0,0-3.016,1.027,4.446,4.446,0,0,0-1.482,2.743H78.26A4.333,4.333,0,0,0,76.8-10.244,4.169,4.169,0,0,0,74.074-11.206ZM89.232.338a6.607,6.607,0,0,1-4.888-1.963A6.642,6.642,0,0,1,82.394-6.5a6.642,6.642,0,0,1,1.95-4.875,6.607,6.607,0,0,1,4.888-1.963,6.576,6.576,0,0,1,3.458.923,5.8,5.8,0,0,1,2.288,2.483L93.08-8.84A3.854,3.854,0,0,0,91.559-10.5a4.392,4.392,0,0,0-2.327-.624A4.407,4.407,0,0,0,85.969-9.8a4.505,4.505,0,0,0-1.313,3.3,4.473,4.473,0,0,0,1.313,3.276A4.407,4.407,0,0,0,89.232-1.9a4.533,4.533,0,0,0,2.34-.611A4.092,4.092,0,0,0,93.158-4.16l1.924,1.118A6.321,6.321,0,0,1,92.69-.585,6.664,6.664,0,0,1,89.232.338ZM104.39-10.816h-3.458V-3.77a1.978,1.978,0,0,0,.377,1.365,1.551,1.551,0,0,0,1.157.416q.78.013,1.924-.039V0a6.69,6.69,0,0,1-4.342-.481Q98.67-1.352,98.67-3.77v-7.046H96.1V-13H98.67v-2.964l2.262-.676V-13h3.458Zm4,1.326a1.369,1.369,0,0,0,.754,1.209,6.759,6.759,0,0,0,1.82.728q1.066.273,2.132.624a4.132,4.132,0,0,1,1.82,1.2,3.138,3.138,0,0,1,.754,2.171,3.416,3.416,0,0,1-1.365,2.834,5.513,5.513,0,0,1-3.5,1.066,6.082,6.082,0,0,1-3.25-.832,4.651,4.651,0,0,1-1.924-2.21l1.95-1.118a2.743,2.743,0,0,0,1.17,1.482,3.745,3.745,0,0,0,2.054.546,3.592,3.592,0,0,0,1.846-.429,1.444,1.444,0,0,0,.728-1.339,1.369,1.369,0,0,0-.754-1.209,6.758,6.758,0,0,0-1.82-.728q-1.066-.273-2.132-.637a4.286,4.286,0,0,1-1.82-1.2,3.053,3.053,0,0,1-.754-2.132,3.46,3.46,0,0,1,1.313-2.782,4.97,4.97,0,0,1,3.289-1.092,5.527,5.527,0,0,1,2.821.715,4.579,4.579,0,0,1,1.859,1.989l-1.9,1.066a2.722,2.722,0,0,0-2.782-1.664,2.865,2.865,0,0,0-1.638.455A1.462,1.462,0,0,0,108.394-9.49Z" transform="translate(767 520)"/></g></svg>